<svg id="Layer_1" data-name="Layer 1" xmlns="http://www.w3.org/2000/svg" viewBox="0 0 808.67 322.6"><path d="M71.38,193.71V104.42H91.22V134H94v59.69Zm53.91,0V141q0-8.85-4.18-13.77t-11.53-4.91a14.31,14.31,0,0,0-11.29,4.83Q94,132,94,139.64L84.61,133A28.84,28.84,0,0,1,89,117.31a31.61,31.61,0,0,1,11.78-11,34,34,0,0,1,16.58-4q10.5,0,17.24,4.46a26.79,26.79,0,0,1,10,11.91A40.7,40.7,0,0,1,147.77,135v58.7Zm53.74,0V141q0-8.85-4.18-13.77t-11.53-4.91a15.05,15.05,0,0,0-8.19,2.19,14.83,14.83,0,0,0-5.41,6.11,20.13,20.13,0,0,0-1.95,9.06l-9.42-6.29a29.93,29.93,0,0,1,16-27.16,33.89,33.89,0,0,1,16.25-3.92q15.28,0,23.1,9T201.52,135v58.7Z"/><path d="M248,196.36q-10.5,0-17.11-3.56a28.26,28.26,0,0,1-10.3-9,37.68,37.68,0,0,1-5.25-11.37,57.29,57.29,0,0,1-1.9-10.79q-.33-4.87-.33-7.11v-50.1h22.82v42.16q0,3.06.33,7.82a35,35,0,0,0,2.07,9.55,18.25,18.25,0,0,0,5.66,8q3.93,3.22,11.12,3.22a23.26,23.26,0,0,0,6.2-.91,15.28,15.28,0,0,0,6.2-3.51,18.87,18.87,0,0,0,4.76-7.69,39.68,39.68,0,0,0,1.86-13.36l12.9,6.12a46.67,46.67,0,0,1-4.3,19.85,35.61,35.61,0,0,1-12.94,15Q261.13,196.37,248,196.36Zm28.94-2.65v-29.6h-2.81V104.42h22.65v89.29Z"/><path d="M313.3,193.71V72.17h22.49V193.71Z"/><path d="M342.4,121.78V104.42h63.5v17.36Zm63.5,71.93a87.05,87.05,0,0,1-18.15,1.53,43.5,43.5,0,0,1-15.88-3.14,21.26,21.26,0,0,1-10.62-9.47,27.51,27.51,0,0,1-3.47-12.44q-.16-6.33-.17-14.35V79.61H380.1v74.91q0,5.21.13,9.38a13,13,0,0,0,1.69,6.66c2,3.14,5.15,4.85,9.51,5.13A74.69,74.69,0,0,0,405.9,175Z"/><path d="M419.12,92V72.17h22.49V92Zm0,101.7V104.42h22.49v89.29Z"/><path d="M451.53,121.78V104.42h57.22v17.36Zm14.06,71.93v-89c0-2.26.05-4.83.16-7.69a38.32,38.32,0,0,1,1.37-8.68,19.23,19.23,0,0,1,4.42-7.94,21.82,21.82,0,0,1,9-6.33,31.12,31.12,0,0,1,9.39-1.82q4.55-.12,7.77-.12h11.08V90.36H498.5q-5.29,0-7.86,2.69a9,9,0,0,0-2.56,6.4v94.26Zm42.17-71.93V104.42H517v17.36Zm20.67,71.93V72.17h22.49V193.71Z"/><path d="M609,196.19q-13.73,0-24.19-5.91A42.63,42.63,0,0,1,568.4,174a47.18,47.18,0,0,1-5.91-23.77q0-14.64,5.79-25.46a42.12,42.12,0,0,1,16-16.83,45.14,45.14,0,0,1,23.39-6q14.05,0,23.9,6.61a38.84,38.84,0,0,1,14.55,18.6q4.71,12,3.31,28.2H627.15v-8.27q0-13.65-4.34-19.64t-14.18-6q-11.5,0-16.91,7t-5.42,20.63q0,12.49,5.42,19.31t15.91,6.82A21.23,21.23,0,0,0,619,172.3a18.57,18.57,0,0,0,7.2-8.35l22.48,6.45a39.55,39.55,0,0,1-15.91,19A44.06,44.06,0,0,1,609,196.19Zm-29.6-40.84v-16.7h59.2v16.7Z"/><path d="M646.5,193.71l31.91-45.14-31.25-44.15h26.45l17.86,26.45L709,104.42h26.46l-31.25,44.15,32.08,45.14H709.83l-18.36-27.45L673,193.71Z"/><path d="M551,242.55a8.41,8.41,0,0,1-3.11,6.81,11.94,11.94,0,0,1-7.67,2.53,11.39,11.39,0,0,1-7.09-2.35,12,12,0,0,1-4.24-6.41l4-1.62a10.48,10.48,0,0,0,1.13,2.62,8.26,8.26,0,0,0,1.69,2,7.52,7.52,0,0,0,2.14,1.31,6.53,6.53,0,0,0,2.49.48,7.11,7.11,0,0,0,4.64-1.47,4.76,4.76,0,0,0,1.81-3.9,4.69,4.69,0,0,0-1.49-3.48,14.33,14.33,0,0,0-5.23-2.71q-3.88-1.4-4.83-1.89-5.14-2.61-5.15-7.72a7.87,7.87,0,0,1,2.85-6.09,10.37,10.37,0,0,1,7.08-2.52,10.92,10.92,0,0,1,6.41,1.89,8.9,8.9,0,0,1,3.61,4.65l-3.88,1.62a5.76,5.76,0,0,0-2.15-3,7,7,0,0,0-8,.16,4,4,0,0,0-1.67,3.29,3.82,3.82,0,0,0,1.31,2.89c1,.81,3.06,1.78,6.27,2.89s5.62,2.47,7,4.08A8.73,8.73,0,0,1,551,242.55Z"/><path d="M560.62,221.43a2.9,2.9,0,0,1-2.93,2.93,2.93,2.93,0,1,1,2.08-5A2.85,2.85,0,0,1,560.62,221.43Zm-.85,7.63v22.1h-4.15v-22.1Z"/><path d="M565.18,229.06h4v3.06h.18a7.35,7.35,0,0,1,2.91-2.7,8.28,8.28,0,0,1,4.09-1.09,8.18,8.18,0,0,1,6.25,2.33,9.31,9.31,0,0,1,2.18,6.61v13.89h-4.15V237.54q-.14-5.41-5.46-5.42a5.2,5.2,0,0,0-4.15,2,7.3,7.3,0,0,0-1.67,4.81v12.22h-4.15Z"/><path d="M599.74,251.89a10.92,10.92,0,0,1-8.16-3.34,11.89,11.89,0,0,1-3.21-8.44,11.69,11.69,0,0,1,3.21-8.44,10.92,10.92,0,0,1,8.16-3.34,10.39,10.39,0,0,1,5.92,1.7,10.25,10.25,0,0,1,3.78,4.67l-3.78,1.57a6.26,6.26,0,0,0-6.19-4.15,6.43,6.43,0,0,0-4.92,2.31,9,9,0,0,0,0,11.37A6.77,6.77,0,0,0,605.88,244l3.7,1.57a9.82,9.82,0,0,1-3.81,4.67A10.78,10.78,0,0,1,599.74,251.89Z"/><path d="M622.89,251.89a10.6,10.6,0,0,1-8-3.34,11.78,11.78,0,0,1-3.16-8.44,12,12,0,0,1,3.07-8.41,11,11,0,0,1,15.68-.19q2.91,3.19,2.91,8.92l-.05.45H615.94a7.22,7.22,0,0,0,2.17,5.23,6.9,6.9,0,0,0,5,2c2.65,0,4.72-1.33,6.23-4l3.7,1.8a11,11,0,0,1-4.13,4.38A11.44,11.44,0,0,1,622.89,251.89Zm-6.63-14.44h12.68a5.5,5.5,0,0,0-1.87-3.81,6.56,6.56,0,0,0-4.54-1.52,6.05,6.05,0,0,0-4,1.45A6.85,6.85,0,0,0,616.26,237.45Z"/><path d="M658.08,220.3v30.86h-4.15V225.45l-6,2.61-1.58-3.52,9.07-4.24Z"/><path d="M673.33,239.89a9.45,9.45,0,0,1-6.72-2.94,9.8,9.8,0,0,1-2.93-7,9.65,9.65,0,0,1,3.16-7.22,10.56,10.56,0,0,1,14.93,0,9.91,9.91,0,0,1,3.07,7.26q0,3.75-3,8.53l-9,13.45-3.34-2.3L677.12,239l-.09-.09A6.62,6.62,0,0,1,673.33,239.89Zm7.31-10a6,6,0,0,0-1.89-4.47,6.43,6.43,0,0,0-9,0,6.31,6.31,0,0,0,0,8.93,6.43,6.43,0,0,0,9,0A5.92,5.92,0,0,0,680.64,229.87Z"/><path d="M709.39,242.64a8.36,8.36,0,0,1-3,6.59,11.75,11.75,0,0,1-14.89,0,8.38,8.38,0,0,1-3-6.59,8,8,0,0,1,1.31-4.45A9,9,0,0,1,693.5,235v-.18a9.67,9.67,0,0,1-2.91-2.89,6.58,6.58,0,0,1-1.1-3.61,8.33,8.33,0,0,1,2.66-6.27,10.48,10.48,0,0,1,13.54,0,8.33,8.33,0,0,1,2.66,6.27,6.52,6.52,0,0,1-1.11,3.61,9.44,9.44,0,0,1-2.91,2.89V235a9,9,0,0,1,3.75,3.18A8,8,0,0,1,709.39,242.64Zm-16.7-.23a5,5,0,0,0,.48,2.21,5.51,5.51,0,0,0,1.3,1.74,5.94,5.94,0,0,0,2,1.15,7.71,7.71,0,0,0,5,0,5.8,5.8,0,0,0,2-1.15,5.4,5.4,0,0,0,1.31-1.74,5,5,0,0,0,.48-2.21,4.89,4.89,0,0,0-1.81-3.88,6.49,6.49,0,0,0-4.42-1.58,6.67,6.67,0,0,0-4.47,1.58A5,5,0,0,0,692.69,242.41Zm1-14.17a4.54,4.54,0,0,0,1.44,3.5,5.94,5.94,0,0,0,7.49,0,4.51,4.51,0,0,0,1.45-3.5,4.32,4.32,0,0,0-1.45-3.43,6.2,6.2,0,0,0-7.49,0A4.35,4.35,0,0,0,693.73,228.24Z"/><path d="M722.65,239.89a9.42,9.42,0,0,1-6.72-2.94,9.89,9.89,0,0,1,.22-14.26,10.57,10.57,0,0,1,14.94,0,10,10,0,0,1,3.07,7.26q0,3.75-3,8.53l-9,13.45-3.33-2.3L726.44,239l-.09-.09A6.62,6.62,0,0,1,722.65,239.89Zm7.31-10a6,6,0,0,0-1.89-4.47,6.43,6.43,0,0,0-9,0,6.31,6.31,0,0,0,0,8.93,6.43,6.43,0,0,0,9,0A5.92,5.92,0,0,0,730,229.87Z"/></svg>